{"title":"Best.Friends.Forever.2013. WEBRip XViD juggs","uid":8643902,"size":739333917,"categoryP":"video","categoryS":"movies","magnet":"?xt=urn:btih:85decb2e84e4d3703da5f8438a863561e8d46cb7&amp;dn=Best.Friends.Forever.2013.+WEBRip+XViD+juggs&amp;tr=udp%3A%2F%2Ftracker.openbittorrent.com%3A80&amp;tr=udp%3A%2F%2Fopen.demonii.com%3A1337&amp;tr=udp%3A%2F%2Ftracker.coppersurfer.tk%3A6969&amp;tr=udp%3A%2F%2Fexodus.desync.com%3A6969","seeders":3,"leechers":0,"uploader":"juggs99","files":3,"time":1372898912,"description":"Source : PHD(Thanks)\n &lt;a href=&quot;\nhttp://www.imdb.com/title/tt2224073/&quot; rel=&quot;nofollow&quot; target=&quot;_NEW&quot;&gt;\nhttp://www.imdb.com/title/tt2224073/&lt;/a&gt;\n\nFormat : AVI\nFormat/Info : Audio Video Interleave\nFile size : 697 MiB\nDuration : 1h 21mn\nOverall bit rate : 1 201 Kbps\nWriting library : VirtualDub build 32842/release\n\nVideo\nID : 0\nFormat : MPEG-4 Visual\nFormat profile : Advanced Simple@L5\nFormat settings, BVOP : 2\nFormat settings, QPel : No\nFormat settings, GMC : No warppoints\nFormat settings, Matrix : Default (H.263)\nMuxing mode : Packed bitstream\nCodec ID : XVID\nCodec ID/Hint : XviD\nDuration : 1h 21mn\nBit rate : 1 064 Kbps\nWidth : 640 pixels\nHeight : 352 pixels\nDisplay aspect ratio : 16:9\nFrame rate : 23.976 fps\nColor space : YUV\nChroma subsampling : 4:2:0\nBit depth : 8 bits\nScan type : Progressive\nCompression mode : Lossy\nBits/(Pixel*Frame) : 0.197\nStream size : 617 MiB (89%)\nWriting library : XviD 64\n\nAudio\nID : 1\nFormat : MPEG Audio\nFormat version : Version 1\nFormat profile : Layer 3\nMode : Joint stereo\nMode extension : MS Stereo\nCodec ID : 55\nCodec ID/Hint : MP3\nDuration : 1h 21mn\nBit rate mode : Constant\nBit rate : 128 Kbps\nChannel(s) : 2 channels\nSampling rate : 44.1 KHz\nCompression mode : Lossy\nStream size : 74.2 MiB (11%)\nAlignment : Split accross interleaves\nInterleave, duration : 42 ms (1.00 video frame)\nInterleave, preload duration : 500 ms\nWriting library : LAME3.98\n\nPlot\nHarriet, a comic book artist with a secret, and her reckless BFF, Reba, take their '76 AMC Pacer on the open road and instead get a wild ride towards an impending nuclear apocalypse.\n &lt;a href=&quot;\nhttp://img6.imageshack.us/img6/6489/9a.png&quot; rel=&quot;nofollow&quot; target=&quot;_NEW&quot;&gt;\nhttp://img6.imageshack.us/img6/6489/9a.png&lt;/a&gt; &lt;a href=&quot;\nhttp://img442.imageshack.us/img442/7163/icce.png&quot; rel=&quot;nofollow&quot; target=&quot;_NEW&quot;&gt;\nhttp://img442.imageshack.us/img442/7163/icce.png&lt;/a&gt; &lt;a href=&quot;\nhttp://img20.imageshack.us/img20/6218/u9qq.png&quot; rel=&quot;nofollow&quot; target=&quot;_NEW&quot;&gt;\nhttp://img20.imageshack.us/img20/6218/u9qq.png&lt;/a&gt; &lt;a href=&quot;\nhttp://img15.imageshack.us/img15/7751/twmh.png&quot; rel=&quot;nofollow&quot; target=&quot;_NEW&quot;&gt;\nhttp://img15.imageshack.us/img15/7751/twmh.png&lt;/a&gt;","torrent":{"xt":"urn:btih:85decb2e84e4d3703da5f8438a863561e8d46cb7","amp;dn":"Best.Friends.Forever.2013.+WEBRip+XViD+juggs","amp;tr":["udp%3A%2F%2Ftracker.openbittorrent.com%3A80","udp%3A%2F%2Fopen.demonii.com%3A1337","udp%3A%2F%2Ftracker.coppersurfer.tk%3A6969","udp%3A%2F%2Fexodus.desync.com%3A6969"],"infoHash":"85decb2e84e4d3703da5f8438a863561e8d46cb7","infoHashBuffer":{"type":"Buffer","data":[133,222,203,46,132,228,211,112,61,165,248,67,138,134,53,97,232,212,108,183]},"announce":[],"urlList":[]}}